<?xml version="1.0" encoding="UTF-8"?>
<!DOCTYPE svg PUBLIC "-//W3C//DTD SVG 1.1//EN" "http://www.w3.org/Graphics/SVG/1.1/DTD/svg11.dtd">
<!-- Creator: CorelDRAW 2020 (64 Bit) -->
<svg xmlns="http://www.w3.org/2000/svg" xml:space="preserve" width="557mm" height="557mm" version="1.1" style="shape-rendering:geometricPrecision; text-rendering:geometricPrecision; image-rendering:optimizeQuality; fill-rule:evenodd; clip-rule:evenodd"
viewBox="0 0 55700 55700"
 xmlns:xlink="http://www.w3.org/1999/xlink"
 xmlns:xodm="http://www.corel.com/coreldraw/odm/2003">
 <defs>
  <style type="text/css">
   <![CDATA[
    .str0 {stroke:#9DD09D;stroke-width:20;stroke-miterlimit:22.9256}
    .str1 {stroke:#9DD09D;stroke-width:7.62;stroke-miterlimit:22.9256}
    .fil1 {fill:none}
    .fil0 {fill:#9DD09D}
   ]]>
  </style>
   <clipPath id="id0">
    <path d="M27844.67 5.34c15381.12,0 27850,12468.87 27850,27850 0,15381.12 -12468.88,27850 -27850,27850 -15381.12,0 -27850,-12468.88 -27850,-27850 0,-15381.13 12468.88,-27850 27850,-27850zm985.04 3087.41c4736.62,0 8576.35,4065.47 8576.35,9080.45 0,5014.98 -3839.73,9080.45 -8576.35,9080.45 -4736.55,0 -8576.35,-4065.47 -8576.35,-9080.45 0,-5014.98 3839.8,-9080.45 8576.35,-9080.45zm-12979.54 35592.12c443.61,-45.11 1166.48,-225.21 1823.67,-252.23 657.2,-27.06 1248.67,99.05 1700.52,504.5 451.79,405.34 763.99,1089.94 599.72,1954.79 -164.29,864.8 -805.09,1909.81 -1601.9,2711.52 -796.88,801.75 -1749.84,1360.27 -3014.94,1792.67 -1265.09,432.36 -2842.32,738.72 -4189.59,630.59 -1347.21,-108.11 -2464.44,-630.59 -3080.56,-1522.42 -616.11,-891.87 -731.16,-2153.01 -805.06,-3585.34 -73.96,-1432.37 -106.79,-3035.82 262.88,-4639.32 369.67,-1603.45 1141.87,-3206.98 2135.91,-4702.34 993.97,-1495.42 2209.74,-2882.72 3474.83,-4071.79 1265.13,-1189.18 2579.51,-2180.06 3861.07,-2954.78 1281.49,-774.76 2530.12,-1333.28 3425.58,-1648.54 895.42,-315.29 1437.57,-387.36 1815.46,-432.4 377.88,-45.04 591.54,-63.06 870.81,108.1 279.27,171.16 624.37,531.46 1125.48,846.79 501.07,315.29 1158.23,585.51 2016.29,816.55 858.07,231.04 1916.94,422.83 2968.48,404.85 1051.5,-18.05 2095.58,-245.92 2954.5,-576.01 858.85,-330.13 1532.47,-762.5 2000.72,-1077.79 468.21,-315.3 731.16,-513.52 1281.52,-522.49 550.4,-9.01 1388.32,171.12 2102.98,432.4 714.7,261.21 1306.2,603.53 2053.79,1089.98 747.49,486.45 1651.16,1117.04 2456.19,1648.57 805.06,531.46 1511.57,963.86 2308.45,1738.62 796.78,774.68 1683.99,1891.8 2447.97,2882.68 763.99,990.89 1404.79,1855.73 1914.08,2873.68 509.35,1017.95 887.2,2189 1084.43,3279.05 197.12,1090.05 213.52,2098.92 238.2,3080.87 24.64,981.87 57.47,1936.76 -115.01,2936.69 -172.55,999.93 -550.43,2044.94 -1519.79,2702.59 -969.36,657.61 -2530.19,927.83 -3926.69,837.78 -1396.56,-90.08 -2628.8,-540.54 -3655.63,-1072.03 -1026.89,-531.53 -1848.35,-1144.03 -2521.97,-1882.75 -673.59,-738.69 -1199.37,-1603.53 -1232.2,-2432.23 -32.89,-828.81 427.11,-1621.59 1306.1,-1945.92 879.03,-324.27 2176.98,-180.1 2924.57,-108.07 747.49,72.07 944.71,72.07 1026.86,-1144.02 82.12,-1216.14 49.29,-3648.4 41.08,-4999.62 -8.25,-1351.33 8.11,-1621.51 -221.84,-1756.67 -230.02,-135.13 -706.48,-135.13 -1437.6,-99.06 -731.13,36 -1716.88,108.07 -2653.38,234.22 -936.54,126.08 -1823.78,306.21 -2628.84,558.45 -805.06,252.27 -1527.97,576.53 -2144.05,882.85 -616.12,306.29 -1125.44,594.52 -1659.45,1017.95 -533.96,423.4 -1092.58,981.88 -1421.14,1855.73 -328.63,873.77 -427.17,2062.92 -468.25,4026.75 -41.07,1963.79 -24.68,4702.34 -180.73,6179.75 -156.11,1477.34 -484.71,1693.57 -690.08,1315.22 -205.37,-378.39 -287.49,-1351.29 -336.74,-3369.13 -49.33,-2017.88 -65.76,-5080.77 -435.43,-6954.51 -369.7,-1873.75 -1092.58,-2558.35 -1988,-3197.98 -895.46,-639.63 -1963.36,-1234.11 -3047.7,-1648.53 -1084.4,-414.39 -2185.26,-648.57 -3491.36,-738.65 -1306.17,-90.09 -2817.74,-36.04 -3630.99,0.03 -813.3,36 -928.28,53.98 -994,828.74 -65.75,774.68 -82.15,2306.14 -57.5,3603.35 24.61,1297.21 90.33,2360.2 205.4,2936.73 114.98,576.58 279.28,666.62 722.88,621.58z"/>
   </clipPath>
   <clipPath id="id1">
    <path d="M27844.67 5.34c15381.12,0 27850,12468.87 27850,27850 0,15381.12 -12468.88,27850 -27850,27850 -15381.12,0 -27850,-12468.88 -27850,-27850 0,-15381.13 12468.88,-27850 27850,-27850zm985.04 3087.41c4736.62,0 8576.35,4065.47 8576.35,9080.45 0,5014.98 -3839.73,9080.45 -8576.35,9080.45 -4736.55,0 -8576.35,-4065.47 -8576.35,-9080.45 0,-5014.98 3839.8,-9080.45 8576.35,-9080.45zm-12979.54 35592.12c443.61,-45.11 1166.48,-225.21 1823.67,-252.23 657.2,-27.06 1248.67,99.05 1700.52,504.5 451.79,405.34 763.99,1089.94 599.72,1954.79 -164.29,864.8 -805.09,1909.81 -1601.9,2711.52 -796.88,801.75 -1749.84,1360.27 -3014.94,1792.67 -1265.09,432.36 -2842.32,738.72 -4189.59,630.59 -1347.21,-108.11 -2464.44,-630.59 -3080.56,-1522.42 -616.11,-891.87 -731.16,-2153.01 -805.06,-3585.34 -73.96,-1432.37 -106.79,-3035.82 262.88,-4639.32 369.67,-1603.45 1141.87,-3206.98 2135.91,-4702.34 993.97,-1495.42 2209.74,-2882.72 3474.83,-4071.79 1265.13,-1189.18 2579.51,-2180.06 3861.07,-2954.78 1281.49,-774.76 2530.12,-1333.28 3425.58,-1648.54 895.42,-315.29 1437.57,-387.36 1815.46,-432.4 377.88,-45.04 591.54,-63.06 870.81,108.1 279.27,171.16 624.37,531.46 1125.48,846.79 501.07,315.29 1158.23,585.51 2016.29,816.55 858.07,231.04 1916.94,422.83 2968.48,404.85 1051.5,-18.05 2095.58,-245.92 2954.5,-576.01 858.85,-330.13 1532.47,-762.5 2000.72,-1077.79 468.21,-315.3 731.16,-513.52 1281.52,-522.49 550.4,-9.01 1388.32,171.12 2102.98,432.4 714.7,261.21 1306.2,603.53 2053.79,1089.98 747.49,486.45 1651.16,1117.04 2456.19,1648.57 805.06,531.46 1511.57,963.86 2308.45,1738.62 796.78,774.68 1683.99,1891.8 2447.97,2882.68 763.99,990.89 1404.79,1855.73 1914.08,2873.68 509.35,1017.95 887.2,2189 1084.43,3279.05 197.12,1090.05 213.52,2098.92 238.2,3080.87 24.64,981.87 57.47,1936.76 -115.01,2936.69 -172.55,999.93 -550.43,2044.94 -1519.79,2702.59 -969.36,657.61 -2530.19,927.83 -3926.69,837.78 -1396.56,-90.08 -2628.8,-540.54 -3655.63,-1072.03 -1026.89,-531.53 -1848.35,-1144.03 -2521.97,-1882.75 -673.59,-738.69 -1199.37,-1603.53 -1232.2,-2432.23 -32.89,-828.81 427.11,-1621.59 1306.1,-1945.92 879.03,-324.27 2176.98,-180.1 2924.57,-108.07 747.49,72.07 944.71,72.07 1026.86,-1144.02 82.12,-1216.14 49.29,-3648.4 41.08,-4999.62 -8.25,-1351.33 8.11,-1621.51 -221.84,-1756.67 -230.02,-135.13 -706.48,-135.13 -1437.6,-99.06 -731.13,36 -1716.88,108.07 -2653.38,234.22 -936.54,126.08 -1823.78,306.21 -2628.84,558.45 -805.06,252.27 -1527.97,576.53 -2144.05,882.85 -616.12,306.29 -1125.44,594.52 -1659.45,1017.95 -533.96,423.4 -1092.58,981.88 -1421.14,1855.73 -328.63,873.77 -427.17,2062.92 -468.25,4026.75 -41.07,1963.79 -24.68,4702.34 -180.73,6179.75 -156.11,1477.34 -484.71,1693.57 -690.08,1315.22 -205.37,-378.39 -287.49,-1351.29 -336.74,-3369.13 -49.33,-2017.88 -65.76,-5080.77 -435.43,-6954.51 -369.7,-1873.75 -1092.58,-2558.35 -1988,-3197.98 -895.46,-639.63 -1963.36,-1234.11 -3047.7,-1648.53 -1084.4,-414.39 -2185.26,-648.57 -3491.36,-738.65 -1306.17,-90.09 -2817.74,-36.04 -3630.99,0.03 -813.3,36 -928.28,53.98 -994,828.74 -65.75,774.68 -82.15,2306.14 -57.5,3603.35 24.61,1297.21 90.33,2360.2 205.4,2936.73 114.98,576.58 279.28,666.62 722.88,621.58z"/>
   </clipPath>
 </defs>
 <g id="Camada_x0020_1">
  <metadata id="CorelCorpID_0Corel-Layer"/>
  <path class="fil0" d="M27844.67 5.34c15381.12,0 27850,12468.87 27850,27850 0,15381.12 -12468.88,27850 -27850,27850 -15381.12,0 -27850,-12468.88 -27850,-27850 0,-15381.13 12468.88,-27850 27850,-27850zm985.04 3087.41c4736.62,0 8576.35,4065.47 8576.35,9080.45 0,5014.98 -3839.73,9080.45 -8576.35,9080.45 -4736.55,0 -8576.35,-4065.47 -8576.35,-9080.45 0,-5014.98 3839.8,-9080.45 8576.35,-9080.45zm-12979.54 35592.12c443.61,-45.11 1166.48,-225.21 1823.67,-252.23 657.2,-27.06 1248.67,99.05 1700.52,504.5 451.79,405.34 763.99,1089.94 599.72,1954.79 -164.29,864.8 -805.09,1909.81 -1601.9,2711.52 -796.88,801.75 -1749.84,1360.27 -3014.94,1792.67 -1265.09,432.36 -2842.32,738.72 -4189.59,630.59 -1347.21,-108.11 -2464.44,-630.59 -3080.56,-1522.42 -616.11,-891.87 -731.16,-2153.01 -805.06,-3585.34 -73.96,-1432.37 -106.79,-3035.82 262.88,-4639.32 369.67,-1603.45 1141.87,-3206.98 2135.91,-4702.34 993.97,-1495.42 2209.74,-2882.72 3474.83,-4071.79 1265.13,-1189.18 2579.51,-2180.06 3861.07,-2954.78 1281.49,-774.76 2530.12,-1333.28 3425.58,-1648.54 895.42,-315.29 1437.57,-387.36 1815.46,-432.4 377.88,-45.04 591.54,-63.06 870.81,108.1 279.27,171.16 624.37,531.46 1125.48,846.79 501.07,315.29 1158.23,585.51 2016.29,816.55 858.07,231.04 1916.94,422.83 2968.48,404.85 1051.5,-18.05 2095.58,-245.92 2954.5,-576.01 858.85,-330.13 1532.47,-762.5 2000.72,-1077.79 468.21,-315.3 731.16,-513.52 1281.52,-522.49 550.4,-9.01 1388.32,171.12 2102.98,432.4 714.7,261.21 1306.2,603.53 2053.79,1089.98 747.49,486.45 1651.16,1117.04 2456.19,1648.57 805.06,531.46 1511.57,963.86 2308.45,1738.62 796.78,774.68 1683.99,1891.8 2447.97,2882.68 763.99,990.89 1404.79,1855.73 1914.08,2873.68 509.35,1017.95 887.2,2189 1084.43,3279.05 197.12,1090.05 213.52,2098.92 238.2,3080.87 24.64,981.87 57.47,1936.76 -115.01,2936.69 -172.55,999.93 -550.43,2044.94 -1519.79,2702.59 -969.36,657.61 -2530.19,927.83 -3926.69,837.78 -1396.56,-90.08 -2628.8,-540.54 -3655.63,-1072.03 -1026.89,-531.53 -1848.35,-1144.03 -2521.97,-1882.75 -673.59,-738.69 -1199.37,-1603.53 -1232.2,-2432.23 -32.89,-828.81 427.11,-1621.59 1306.1,-1945.92 879.03,-324.27 2176.98,-180.1 2924.57,-108.07 747.49,72.07 944.71,72.07 1026.86,-1144.02 82.12,-1216.14 49.29,-3648.4 41.08,-4999.62 -8.25,-1351.33 8.11,-1621.51 -221.84,-1756.67 -230.02,-135.13 -706.48,-135.13 -1437.6,-99.06 -731.13,36 -1716.88,108.07 -2653.38,234.22 -936.54,126.08 -1823.78,306.21 -2628.84,558.45 -805.06,252.27 -1527.97,576.53 -2144.05,882.85 -616.12,306.29 -1125.44,594.52 -1659.45,1017.95 -533.96,423.4 -1092.58,981.88 -1421.14,1855.73 -328.63,873.77 -427.17,2062.92 -468.25,4026.75 -41.07,1963.79 -24.68,4702.34 -180.73,6179.75 -156.11,1477.34 -484.71,1693.57 -690.08,1315.22 -205.37,-378.39 -287.49,-1351.29 -336.74,-3369.13 -49.33,-2017.88 -65.76,-5080.77 -435.43,-6954.51 -369.7,-1873.75 -1092.58,-2558.35 -1988,-3197.98 -895.46,-639.63 -1963.36,-1234.11 -3047.7,-1648.53 -1084.4,-414.39 -2185.26,-648.57 -3491.36,-738.65 -1306.17,-90.09 -2817.74,-36.04 -3630.99,0.03 -813.3,36 -928.28,53.98 -994,828.74 -65.75,774.68 -82.15,2306.14 -57.5,3603.35 24.61,1297.21 90.33,2360.2 205.4,2936.73 114.98,576.58 279.28,666.62 722.88,621.58z"/>
  <g style="clip-path:url(#id0)">
   <g id="_1951890371568">
   </g>
  </g>
  <path id="1" class="fil1 str0" d="M27844.67 5.34c15381.12,0 27850,12468.87 27850,27850 0,15381.12 -12468.88,27850 -27850,27850 -15381.12,0 -27850,-12468.88 -27850,-27850 0,-15381.13 12468.88,-27850 27850,-27850zm985.04 3087.41c4736.62,0 8576.35,4065.47 8576.35,9080.45 0,5014.98 -3839.73,9080.45 -8576.35,9080.45 -4736.55,0 -8576.35,-4065.47 -8576.35,-9080.45 0,-5014.98 3839.8,-9080.45 8576.35,-9080.45zm-12979.54 35592.12c443.61,-45.11 1166.48,-225.21 1823.67,-252.23 657.2,-27.06 1248.67,99.05 1700.52,504.5 451.79,405.34 763.99,1089.94 599.72,1954.79 -164.29,864.8 -805.09,1909.81 -1601.9,2711.52 -796.88,801.75 -1749.84,1360.27 -3014.94,1792.67 -1265.09,432.36 -2842.32,738.72 -4189.59,630.59 -1347.21,-108.11 -2464.44,-630.59 -3080.56,-1522.42 -616.11,-891.87 -731.16,-2153.01 -805.06,-3585.34 -73.96,-1432.37 -106.79,-3035.82 262.88,-4639.32 369.67,-1603.45 1141.87,-3206.98 2135.91,-4702.34 993.97,-1495.42 2209.74,-2882.72 3474.83,-4071.79 1265.13,-1189.18 2579.51,-2180.06 3861.07,-2954.78 1281.49,-774.76 2530.12,-1333.28 3425.58,-1648.54 895.42,-315.29 1437.57,-387.36 1815.46,-432.4 377.88,-45.04 591.54,-63.06 870.81,108.1 279.27,171.16 624.37,531.46 1125.48,846.79 501.07,315.29 1158.23,585.51 2016.29,816.55 858.07,231.04 1916.94,422.83 2968.48,404.85 1051.5,-18.05 2095.58,-245.92 2954.5,-576.01 858.85,-330.13 1532.47,-762.5 2000.72,-1077.79 468.21,-315.3 731.16,-513.52 1281.52,-522.49 550.4,-9.01 1388.32,171.12 2102.98,432.4 714.7,261.21 1306.2,603.53 2053.79,1089.98 747.49,486.45 1651.16,1117.04 2456.19,1648.57 805.06,531.46 1511.57,963.86 2308.45,1738.62 796.78,774.68 1683.99,1891.8 2447.97,2882.68 763.99,990.89 1404.79,1855.73 1914.08,2873.68 509.35,1017.95 887.2,2189 1084.43,3279.05 197.12,1090.05 213.52,2098.92 238.2,3080.87 24.64,981.87 57.47,1936.76 -115.01,2936.69 -172.55,999.93 -550.43,2044.94 -1519.79,2702.59 -969.36,657.61 -2530.19,927.83 -3926.69,837.78 -1396.56,-90.08 -2628.8,-540.54 -3655.63,-1072.03 -1026.89,-531.53 -1848.35,-1144.03 -2521.97,-1882.75 -673.59,-738.69 -1199.37,-1603.53 -1232.2,-2432.23 -32.89,-828.81 427.11,-1621.59 1306.1,-1945.92 879.03,-324.27 2176.98,-180.1 2924.57,-108.07 747.49,72.07 944.71,72.07 1026.86,-1144.02 82.12,-1216.14 49.29,-3648.4 41.08,-4999.62 -8.25,-1351.33 8.11,-1621.51 -221.84,-1756.67 -230.02,-135.13 -706.48,-135.13 -1437.6,-99.06 -731.13,36 -1716.88,108.07 -2653.38,234.22 -936.54,126.08 -1823.78,306.21 -2628.84,558.45 -805.06,252.27 -1527.97,576.53 -2144.05,882.85 -616.12,306.29 -1125.44,594.52 -1659.45,1017.95 -533.96,423.4 -1092.58,981.88 -1421.14,1855.73 -328.63,873.77 -427.17,2062.92 -468.25,4026.75 -41.07,1963.79 -24.68,4702.34 -180.73,6179.75 -156.11,1477.34 -484.71,1693.57 -690.08,1315.22 -205.37,-378.39 -287.49,-1351.29 -336.74,-3369.13 -49.33,-2017.88 -65.76,-5080.77 -435.43,-6954.51 -369.7,-1873.75 -1092.58,-2558.35 -1988,-3197.98 -895.46,-639.63 -1963.36,-1234.11 -3047.7,-1648.53 -1084.4,-414.39 -2185.26,-648.57 -3491.36,-738.65 -1306.17,-90.09 -2817.74,-36.04 -3630.99,0.03 -813.3,36 -928.28,53.98 -994,828.74 -65.75,774.68 -82.15,2306.14 -57.5,3603.35 24.61,1297.21 90.33,2360.2 205.4,2936.73 114.98,576.58 279.28,666.62 722.88,621.58z"/>
  <g style="clip-path:url(#id1)">
   <path id="2" class="fil1 str1" d="M-5.33 5.34l55700 55700m0 -55700l-55700 55700"/>
  </g>
 </g>
</svg>
